<?xml version="1.0" standalone="no"?>
<!DOCTYPE svg PUBLIC "-//W3C//DTD SVG 1.1//EN" "http://www.w3.org/Graphics/SVG/1.1/DTD/svg11.dtd" >
<svg xmlns="http://www.w3.org/2000/svg">
<metadata>Generated by IcoMoon</metadata>
<defs>
<font id="fdc" horiz-adv-x="1024">
<font-face units-per-em="1024" ascent="960" descent="-64" />
<missing-glyph horiz-adv-x="1024" />
<glyph unicode="&#x20;" horiz-adv-x="512" d="" />
<glyph unicode="&#xe900;" glyph-name="arrow" horiz-adv-x="1490" d="M1142.547 960h-262.643l206.435-363.816h-1086.339v-297.389h1086.339l-206.435-362.794h262.643l348.487 499.737v24.527z" />
<glyph unicode="&#xe901;" glyph-name="user" horiz-adv-x="1090" d="M950.361 34.153c26.667 0 40.563 6.703 41.59 11.254 2.593 11.694-8.171 41.101-46.239 59.156l-400.636 191.462-400.538-191.56c-37.92-17.957-48.636-47.364-45.994-59.058 0.93-4.55 14.972-11.254 41.541-11.254h810.275zM545.223 301.602l122.324 94.043c21.235 16.245 46.336 41.688 52.502 94.141l22.85 204.673c4.893 43.058-4.893 77.26-29.358 104.807-34.985 39.144-98.251 62.581-169.248 62.581-68.893 0-133.284-23.927-167.535-62.434-24.465-27.498-34.251-61.896-29.358-105.15l22.801-203.988c6.214-52.942 31.315-78.287 52.502-94.63l122.324-94.043zM950.165-64h-810.080c-180.502 0-179.425 189.7-37.676 257.125l260.55 124.575c-34.251 26.324-80.049 73.394-90.373 161.174l-22.801 204.526c-20.55 181.676 134.85 276.599 294.85 276.599 161.174 0 316.526-94.924 295.976-276.648l-22.801-204.526c-10.324-88.073-56.073-134.899-90.373-161.174l260.55-124.575c141.896-67.376 142.875-257.125-37.627-257.125v0z" />
<glyph unicode="&#xe902;" glyph-name="mail" horiz-adv-x="1367" d="M1121.215 960h-881.418c-129.62 0-239.797-110.177-239.797-246.278v-531.443c0-136.101 110.177-239.797 246.278-239.797h881.418c136.101 0 239.797 110.177 239.797 246.278v524.962c-6.481 136.101-110.177 246.278-246.278 246.278zM1263.797 713.722v-531.443c0-25.924-6.481-45.367-12.962-64.81l-330.532 330.532 330.532 330.532c6.481-12.962 12.962-38.886 12.962-64.81zM518.481 383.19l6.481-6.481c84.253-84.253 226.835-84.253 317.57 0l6.481 6.481 330.532-330.532c-19.443-6.481-38.886-12.962-58.329-12.962h-881.418c-19.443 0-38.886 6.481-58.329 12.962l337.013 330.532zM596.253 441.519l-401.823 408.304c12.962 6.481 32.405 6.481 51.848 6.481h881.418c19.443 0 32.405 0 51.848-6.481l-408.304-408.304c-51.848-45.367-129.62-45.367-174.987 0zM447.19 454.481l-330.532-337.013c-12.962 19.443-12.962 38.886-12.962 64.81v531.443c0 25.924 6.481 45.367 19.443 64.81l324.051-324.051z" />
<glyph unicode="&#xe903;" glyph-name="tool" horiz-adv-x="1014" d="M183.034 74.512c24.734 0 44.522 19.787 44.522 49.469s-19.787 49.469-44.522 49.469-49.469-19.787-49.469-49.469 24.734-49.469 49.469-49.469zM1009.159 653.295c-14.841 24.734-39.575 29.681-64.309 19.787l-168.193-98.937c-39.575 39.575-69.256 89.043-89.043 153.353l173.14 108.831c4.947 0 9.894 4.947 9.894 9.894 0 0 0 0 0 4.947v4.947c14.841 24.734 0 54.415-19.787 64.309-44.522 29.681-103.884 39.575-173.14 39.575-24.734 0-39.575-4.947-59.362-9.894h-9.894c-163.246-44.522-262.184-207.768-227.556-375.961l-341.333-341.333c-74.203-74.203-39.575-173.14 19.787-232.502 39.575-39.575 89.043-64.309 138.512-64.309 34.628 0 69.256 9.894 98.937 39.575l336.386 341.333c108.831-14.841 207.768 9.894 277.024 69.256s103.884 143.459 103.884 242.396c0 9.894 0 19.787-4.947 24.734zM469.952 559.304c-19.787 54.415-14.841 113.778 4.947 158.3v4.947c0 4.947 4.947 4.947 4.947 9.894 49.469 113.778 173.14 168.193 291.865 133.565l-143.459-84.097c-14.841-9.894-19.787-29.681-19.787-49.469 19.787-89.043 69.256-178.087 133.565-232.502 14.841-14.841 39.575-19.787 54.415-4.947l143.459 79.15c-19.787-108.831-118.725-183.034-232.502-178.087-29.681 0-59.362 4.947-89.043 9.894h-4.947l-371.014-371.014c-19.787-14.841-39.575-19.787-64.309-14.841-39.575 9.894-79.15 49.469-93.99 93.99-4.947 14.841-4.947 39.575 14.841 59.362l375.961 375.961-4.947 9.894z" />
<glyph unicode="&#xe904;" glyph-name="share" horiz-adv-x="988" d="M920.994 269.254c-72.71 60.592-175.716 54.533-242.367-12.118l-309.018 157.538c0 12.118 0 24.237 0 36.355s0 30.296-6.059 42.414l302.959 157.538c36.355-36.355 84.828-54.533 133.302-54.533 103.006 0 187.834 84.828 187.834 187.834 0 90.888-78.769 175.716-181.775 175.716s-187.834-84.828-187.834-187.834c0-6.059 0-18.178 0-24.237l-309.018-157.538c0 0 0 0 0 0-42.414 30.296-90.888 48.473-139.361 42.414s-90.888-30.296-127.243-66.651c-66.651-78.769-54.533-193.893 24.237-260.544 72.71-60.592 175.716-54.533 242.367 6.059l309.018-157.538c0-12.118 0-18.178-6.059-30.296 0-103.006 84.828-187.834 187.834-187.834 54.533 0 109.065 24.237 145.42 72.71 30.296 36.355 42.414 84.828 36.355 139.361s-24.237 90.888-60.592 121.183zM733.16 123.834c0 36.355 30.296 66.651 66.651 66.651v0c18.178 0 36.355-6.059 48.473-18.178s18.178-30.296 18.178-48.473c0-36.355-30.296-66.651-66.651-66.651-30.296-6.059-66.651 24.237-66.651 66.651zM805.87 705.515c-36.355 0-66.651 30.296-66.651 66.651s30.296 66.651 66.651 66.651v0c36.355 0 66.651-30.296 66.651-66.651s-30.296-66.651-66.651-66.651zM139.361 396.497c-12.118 18.178-18.178 30.296-18.178 54.533s6.059 36.355 18.178 48.473c12.118 12.118 30.296 18.178 48.473 18.178v0c36.355 0 66.651-30.296 66.651-66.651s-30.296-66.651-66.651-66.651c-18.178-6.059-36.355 0-48.473 12.118z" />
<glyph unicode="&#xe905;" glyph-name="pen" d="M820.224 948.736l-660.48-658.432-145.408-291.84c-5.12-14.336-1.024-29.696 9.216-39.936s26.624-13.312 39.936-8.192l291.84 145.408 658.432 659.456-193.536 193.536zM277.504 132.608l-132.096-67.584c0 4.096-2.048 8.192-5.12 10.24-3.072 3.072-6.144 4.096-10.24 5.12l67.584 132.096 79.872-79.872zM687.104 722.432l100.352-99.328-452.608-452.608-99.328 99.328 451.584 452.608zM845.824 681.472l-12.288-11.264-99.328 99.328 12.288 11.264 99.328-99.328zM793.6 827.904l25.6 26.624 100.352-99.328-26.624-26.624-99.328 99.328z" />
<glyph unicode="&#xe906;" glyph-name="cross" d="M995.357 14.769l-429.65 436.811 429.65 429.65c14.322 14.322 14.322 35.804 0 50.126s-35.804 14.322-50.126 0l-429.65-429.65-429.65 429.65c-14.322 14.322-42.965 14.322-57.287 0s-14.322-35.804 0-50.126l429.65-429.65-436.811-436.811c-14.322-14.322-14.322-35.804 0-50.126 14.322-7.161 21.483-7.161 28.643-7.161s21.483 0 28.643 7.161l436.811 436.811 436.811-436.811c7.161-7.161 14.322-7.161 28.643-7.161s21.483 0 28.643 7.161c0 14.322 0 35.804-14.322 50.126z" />
<glyph unicode="&#xe907;" glyph-name="check" d="M106.496 505.344l-107.52-118.784 384-346.112 641.024 708.608-117.76 106.496-534.528-589.824z" />
<glyph unicode="&#xe908;" glyph-name="error" d="M513.024 950.784c-276.48 0-500.736-224.256-500.736-500.736s224.256-500.736 500.736-500.736c276.48 0 500.736 224.256 500.736 500.736s-224.256 500.736-500.736 500.736zM513.024-8.704c-252.928 0-458.752 205.824-458.752 458.752s205.824 458.752 458.752 458.752c252.928 0 458.752-205.824 458.752-458.752 0-253.952-204.8-458.752-458.752-458.752zM488.448 689.664h45.056v-353.28h-45.056v353.28zM488.448 288.256h45.056v-75.776h-45.056v75.776z" />
<glyph unicode="&#xe909;" glyph-name="trash-bin" horiz-adv-x="801" d="M236.387 724.645h92.903v-591.484h-92.903v591.484zM472.774 724.645h92.903v-591.484h-92.903v591.484zM0 960v-1024h801.032v1024h-801.032zM92.903 27.871v839.226h615.226v-839.226h-615.226z" />
<glyph unicode="&#xe90a;" glyph-name="plus" d="M1011.712 504.32h-445.44v445.44h-109.568v-445.44h-444.416v-110.592h444.416v-444.416h109.568v444.416h445.44z" />
<glyph unicode="&#xe90b;" glyph-name="trash-cover" horiz-adv-x="3864" d="M2697.177 318.551v660.77h-1534.068v-660.77h-1155.381v-382.551h3844.83v382.551h-1155.381zM2314.626 596.77v-274.355h-768.966v274.355h768.966z" />
<glyph unicode="&#xe90c;" glyph-name="photo" d="M977.92 796.16c8.192-7.168 12.288-18.432 12.288-28.672v-645.12c0-11.264-4.096-21.504-12.288-28.672s-18.432-11.264-28.672-11.264h-873.472c-11.264 0-21.504 4.096-28.672 11.264-8.192 6.144-12.288 16.384-12.288 27.648v645.12c0 22.528 18.432 40.96 40.96 40.96h873.472c11.264 1.024 21.504-4.096 28.672-11.264zM118.784 724.48v-349.184l240.64 194.56c15.36 13.312 37.888 12.288 52.224-2.048l261.12-225.28 111.616 93.184c13.312 14.336 36.864 15.36 51.2 1.024 0 0 1.024-1.024 1.024-1.024l68.608-58.368v347.136h-786.432zM906.24 164.352v102.4l-95.232 82.944-111.616-93.184c-15.36-15.36-38.912-15.36-54.272 0l-261.12 226.304-265.216-216.064v-102.4h787.456zM652.288 507.392c41.984 0 76.8 33.792 76.8 75.776 0 0 0 0 0 0 0 20.48-8.192 39.936-22.528 53.248-30.72 28.672-77.824 28.672-108.544 0-14.336-14.336-22.528-33.792-22.528-53.248 0-40.96 34.816-75.776 76.8-75.776 0 0 0 0 0 0v0z" />
<glyph unicode="&#xe90d;" glyph-name="bulb" horiz-adv-x="668" d="M668.448 622.128c0-54.722-12.347-105.234-37.042-152.099-24.695-46.584-56.967-84.749-96.816-113.934v-83.907c0-26.659-14.592-41.252-43.777-44.058l-305.32-24.134h-3.929c-13.189 0-23.853 3.929-31.991 12.067-10.664 10.664-15.996 21.327-15.996 31.991v108.041c-88.958 61.176-133.577 149.854-133.577 266.032 0 93.448 32.833 172.865 98.78 239.092 65.947 65.666 143.961 98.78 234.322 98.78s168.656-33.114 234.602-99.061c65.947-65.947 99.341-145.644 100.744-238.812v0 0zM576.684 622.128c0 69.314-23.853 127.965-71.84 175.952s-105.234 72.121-171.742 72.121c-66.508 0-123.756-24.134-171.742-72.121-47.706-47.987-71.559-106.637-71.559-175.952 0-92.045 37.323-159.395 111.689-202.050 13.189-8.138 19.924-20.766 19.924-37.884v-85.871l223.377 17.96v67.631c0 17.399 7.296 30.027 21.889 37.884 73.524 40.129 110.005 107.479 110.005 202.331v0 0zM513.824 164.148c-8.699 8.138-19.644 11.225-32.833 10.102l-303.355-21.889c-12.067-1.403-22.169-6.735-30.869-15.996s-12.347-19.924-10.944-31.991c3.929-28.062 19.363-42.094 46.022-42.094h1.964l303.355 24.134c13.189 1.403 23.853 6.174 31.991 14.873 7.857 8.699 11.225 19.644 10.102 33.114-1.684 11.506-6.735 21.608-15.434 29.746v0zM417.008 24.116c-9.261 8.138-19.924 11.225-31.991 10.102l-109.724-8.138c-12.067-2.806-22.169-8.419-30.869-17.118s-12.347-19.082-10.944-30.869c5.332-28.062 20.486-42.094 46.022-42.094h1.964l109.724 8.138c12.067 2.526 22.169 8.419 30.869 17.118s12.347 19.082 10.944 30.869c-1.403 13.189-6.735 23.853-15.996 31.991v0zM479.868 734.097c-23.292 29.185-48.829 49.39-76.891 60.054-10.664 2.526-20.766 1.684-30.027-3.087s-15.434-11.786-17.96-21.047c-9.261-24.134-1.964-40.691 21.889-49.951 5.332-1.403 12.067-4.771 19.924-10.102s16.276-15.434 24.976-30.027c8.699-14.592 12.347-31.43 10.944-49.951-1.403-10.664 1.684-19.924 8.98-28.062 7.296-7.857 15.715-12.628 24.976-14.031h3.929c22.731 0 35.359 12.067 37.884 35.92 4.209 44.058-5.332 80.82-28.624 110.286v0z" />
<glyph unicode="&#xe90e;" glyph-name="lock" horiz-adv-x="710" d="M696.555 582.088c8.802-8.802 13.497-19.365 13.497-31.688v-569.215c0-12.323-4.695-22.886-13.497-31.688s-19.952-13.497-34.036-13.497h-615.574c-13.497 0-25.233 4.695-34.036 13.497-8.215 8.215-12.91 18.778-12.91 31.101v569.215c0 12.323 4.695 22.886 13.497 31.688s19.952 13.497 34.036 13.497h32.862v80.394c0 83.328 25.82 151.399 76.873 204.8s116.19 79.807 195.411 79.807c58.682 0 110.322-15.257 154.92-45.185s76.287-71.005 95.652-122.645c11.15-27.581 2.934-46.946-24.646-59.269-29.928-9.389-49.88-0.587-59.269 26.407-28.754 73.939-83.915 110.909-166.070 110.909-53.401 0-96.825-17.605-130.274-53.401s-50.466-82.742-50.466-141.423v-79.807h490.581c13.497 0 24.646-4.695 33.449-13.497v0zM617.334 505.215h-525.203v-479.432h525.203v479.432z" />
<glyph unicode="&#xe90f;" glyph-name="ding" d="M951.296 164.352c0-10.24-4.096-21.504-12.288-27.648-8.192-7.168-19.456-11.264-30.72-11.264l-234.496-7.168c-4.096-46.080-22.528-89.088-52.224-124.928-58.368-62.464-155.648-65.536-217.088-7.168-3.072 2.048-5.12 5.12-7.168 7.168-29.696 34.816-47.104 78.848-49.152 124.928l-231.424 7.168c-11.264 0-22.528 4.096-30.72 11.264s-12.288 17.408-12.288 27.648c-1.024 21.504 15.36 39.936 36.864 40.96 2.048 0 4.096 0 6.144 0 35.84-1.024 68.608 22.528 78.848 57.344 19.456 77.824 27.648 158.72 22.528 239.616-4.096 87.040 19.456 173.056 68.608 244.736 46.080 61.44 117.76 98.304 194.56 100.352v61.44c0 11.264 4.096 22.528 12.288 30.72s19.456 12.288 30.72 12.288c11.264 0 21.504-4.096 28.672-12.288 8.192-8.192 12.288-19.456 12.288-30.72v-63.488c72.704-7.168 139.264-45.056 182.272-105.472 47.104-70.656 69.632-154.624 65.536-239.616-4.096-80.896 2.048-161.792 20.48-239.616 9.216-33.792 39.936-57.344 74.752-56.32 19.456 4.096 38.912-9.216 43.008-28.672 0-5.12 0-8.192 0-11.264v0 0zM566.272 117.248h-108.544c1.024-18.432 8.192-36.864 19.456-51.2 7.168-10.24 19.456-15.36 31.744-14.336 12.288-1.024 24.576 4.096 31.744 14.336 14.336 14.336 22.528 31.744 25.6 51.2v0 0zM762.88 208.384c-31.744 94.208-44.032 193.536-36.864 292.864 5.12 68.608-14.336 137.216-53.248 194.56-37.888 45.056-96.256 70.656-155.648 66.56h-11.264c-139.264 0-208.896-87.040-208.896-261.12 7.168-99.328-6.144-198.656-38.912-292.864h504.832z" />
<glyph unicode="&#xe910;" glyph-name="flash" d="M721.92 951.808l-551.936-578.56 252.928 43.008-200.704-468.992 614.4 637.952-249.856-41.984 135.168 408.576z" />
<glyph unicode="&#xe911;" glyph-name="home" d="M998.4 427.52c16.384 14.336 18.432 39.936 4.096 56.32-2.048 2.048-4.096 4.096-6.144 6.144l-455.68 445.44c-16.384 17.408-43.008 18.432-60.416 2.048-1.024-1.024-1.024-1.024-2.048-2.048l-454.656-445.44c-17.408-17.408-17.408-45.056 0-62.464 16.384-16.384 43.008-17.408 60.416-2.048l425.984 417.792 425.984-417.792c9.216-6.144 20.48-10.24 31.744-11.264 11.264 0 22.528 5.12 30.72 13.312v0 0zM858.112-40.448c-8.192-8.192-18.432-13.312-30.72-12.288h-222.208c-23.552 0-43.008 19.456-43.008 43.008v247.808h-103.424v-247.808c0-23.552-19.456-43.008-43.008-43.008h-224.256c-23.552 0-43.008 19.456-43.008 43.008v425.984c0 23.552 19.456 43.008 43.008 43.008 12.288 0 23.552-4.096 31.744-12.288s13.312-18.432 12.288-30.72v-380.928h135.168v232.448c0 15.36 6.144 29.696 17.408 39.936s25.6 16.384 40.96 16.384h160.768c15.36 0 29.696-6.144 40.96-16.384s17.408-24.576 17.408-39.936v-232.448h135.168v380.928c0 11.264 4.096 22.528 12.288 30.72s20.48 13.312 31.744 12.288c23.552 0 43.008-19.456 43.008-43.008v-425.984c1.024-12.288-4.096-22.528-12.288-30.72z" />
<glyph unicode="&#xe912;" glyph-name="heart" horiz-adv-x="1153" d="M996.324 803.171v0c-46.126 46.126-110.703 83.027-184.505 83.027-55.351 0-110.703-18.45-156.829-46.126-36.901-27.676-64.577-55.351-83.027-83.027-18.45 27.676-46.126 55.351-73.802 83.027-55.351 27.676-101.477 46.126-156.829 46.126-73.802 0-138.378-27.676-184.505-83.027s-73.802-119.928-73.802-184.505c0-129.153 83.027-276.757 239.856-415.135 27.676-27.676 73.802-64.577 110.703-92.252s73.802-46.126 83.027-64.577c36.901-18.45 36.901-18.45 46.126-27.676l18.45-9.225 9.225 9.225c9.225 0 18.45 9.225 36.901 27.676 27.676 18.45 55.351 27.676 83.027 64.577 36.901 27.676 73.802 55.351 110.703 83.027 156.829 138.378 239.856 285.982 239.856 415.135 9.225 73.802-18.45 138.378-64.577 193.73zM156.829 618.667c0 55.351 18.45 101.477 55.351 138.378 27.676 36.901 83.027 64.577 129.153 64.577s101.477-18.45 147.604-46.126c36.901-36.901 64.577-73.802 64.577-129.153v-18.45h73.802v9.225c0 46.126 27.676 92.252 64.577 129.153 27.676 27.676 73.802 46.126 129.153 46.126s101.477-27.676 129.153-64.577c27.676-36.901 55.351-83.027 55.351-138.378 0-46.126-18.45-92.252-36.901-147.604-27.676-46.126-55.351-83.027-92.252-129.153-46.126-36.901-83.027-73.802-129.153-119.928-46.126-36.901-92.252-64.577-110.703-83.027s-36.901-18.45-64.577-36.901c-18.45 18.45-36.901 27.676-55.351 36.901-18.45 18.45-64.577 46.126-110.703 83.027-46.126 46.126-83.027 83.027-119.928 119.928s-73.802 73.802-92.252 129.153c-27.676 64.577-36.901 110.703-36.901 156.829z" />
<glyph unicode="&#xe913;" glyph-name="printer" d="M110.277 558.277h189.046v-70.892h-189.046v70.892zM346.585 258.954h330.831v-70.892h-330.831v70.892zM346.585 140.8h330.831v-70.892h-330.831v70.892zM779.815 660.677v283.569h-535.631v-283.569h-220.554v-543.508h220.554v-165.415h543.508v165.415h220.554v543.508h-228.431zM716.8 873.354v-212.677h-409.6v212.677h409.6zM244.185 377.108v-189.046h-157.538v401.723h850.708v-401.723h-157.538v189.046h-535.631zM307.2 22.646v291.446h401.723v-283.569h-401.723z" />
<glyph unicode="&#xe914;" glyph-name="pointer" d="M478.208 448v-474.112l474.112 948.224-880.64-474.112h406.528z" />
<glyph unicode="&#xe915;" glyph-name="cb" horiz-adv-x="1536" d="M1424 960h-1312c-60.8 0-112-49.6-112-112v-800c0-60.8 51.2-112 112-112h1312c60.8 0 112 51.2 112 112v800c0 62.4-51.2 112-112 112zM112 864h1312c8 0 16-8 16-16v-59.2h-1344v59.2c0 8 8 16 16 16zM1424 32h-1312c-8 0-16 8-16 16v576h1344v-576c0-8-8-16-16-16zM990.4 414.4h339.2v-137.6h-339.2v137.6z" />
<glyph unicode="&#xe916;" glyph-name="chq" horiz-adv-x="1984" d="M0 960v-1024h1984v1024h-1984zM1898.667 21.333h-1685.333v853.333h1685.333v-853.333zM405.333 725.333h1344v-42.667h-1344v42.667zM405.333 554.667h1344v-42.667h-1344v42.667zM1344 170.667h405.333v-42.667h-405.333v42.667z" />
<glyph unicode="&#xe917;" glyph-name="minus" d="M512-50.688c-275.456 0-498.688 223.232-498.688 498.688s223.232 498.688 498.688 498.688 498.688-223.232 498.688-498.688-223.232-498.688-498.688-498.688zM512 895.488c-246.784 0-447.488-200.704-447.488-447.488s200.704-447.488 447.488-447.488 447.488 200.704 447.488 447.488-200.704 447.488-447.488 447.488zM202.752 487.936h616.448v-80.896h-616.448v80.896z" />
<glyph unicode="&#xe918;" glyph-name="plus2" d="M512-50.688c-275.456 0-498.688 223.232-498.688 498.688s223.232 498.688 498.688 498.688 498.688-223.232 498.688-498.688-223.232-498.688-498.688-498.688zM512 895.488c-246.784 0-447.488-200.704-447.488-447.488s200.704-447.488 447.488-447.488c246.784 0 447.488 200.704 447.488 447.488s-200.704 447.488-447.488 447.488zM465.92 755.2h90.112v-614.4h-90.112v614.4zM202.752 487.936h616.448v-80.896h-616.448v80.896z" />
<glyph unicode="&#xe919;" glyph-name="arrowleft" horiz-adv-x="624" d="M623.538-6.244l-114.369-57.184-508.369 514.888 508.369 508.369 114.369-57.184-454.215-454.215z" />
<glyph unicode="&#xe91a;" glyph-name="arrowright" horiz-adv-x="624" d="M622.737 444.826l-508.369-508.426-114.369 57.184 454.044 454.215-454.044 454.272 114.369 57.184 505.51-511.685z" />
<glyph unicode="&#xe91b;" glyph-name="plain_heart" horiz-adv-x="1102" d="M1033.752 862.476c48.762-58.514 78.019-136.533 78.019-214.552 0-156.038-87.771-321.829-273.067-497.371-48.762-39.010-87.771-78.019-136.533-107.276-39.010-39.010-78.019-58.514-97.524-78.019-29.257-19.505-39.010-29.257-39.010-29.257h-19.505c0 0-9.752 9.752-39.010 29.257s-58.514 39.010-107.276 78.019c-39.010 29.257-87.771 68.267-126.781 107.276-185.295 175.543-273.067 341.333-273.067 497.371 0 87.771 29.257 156.038 78.019 214.552s117.029 97.524 195.048 97.524c58.514 0 117.029-19.505 165.79-48.762s87.771-78.019 107.276-126.781c19.505 48.762 58.514 97.524 107.276 126.781 58.514 29.257 117.029 48.762 175.543 48.762 78.019 0 146.286-29.257 204.8-97.524z" />
<glyph unicode="&#xe91c;" glyph-name="tick-rounded" horiz-adv-x="1346" d="M1172.356 928.259l-681.747-629.305-316.032 265.66c-17.941 20.701-40.022 32.431-66.933 34.501-27.601 3.45-51.062-3.45-71.073-20.701-21.391-17.941-33.121-40.022-36.571-67.623-2.070-26.221 5.52-49.682 22.081-70.383l385.725-467.838c13.801-14.491 28.981-24.841 46.232-31.741 19.321-6.21 37.951-6.9 57.272-1.38s34.501 14.491 46.232 28.291l761.1 830.792c19.321 20.011 28.291 42.782 26.911 69.003-2.070 26.911-12.42 49.682-31.741 67.623-20.011 17.251-44.162 25.531-71.763 24.841-26.911-1.38-50.372-11.73-69.693-31.741v0 0z" />
<glyph unicode="&#xe91d;" glyph-name="star-half" horiz-adv-x="1026" d="M513.996 152.577c-4.99 0-9.981-0.998-10.979-3.992l-227.556-192.624c-10.979-8.982-20.959-17.965-44.912-18.963-12.975-0.998-30.94 5.988-38.924 18.963-8.982 12.975-9.981 23.953-9.981 32.936 0 9.981 2.994 17.965 4.99 25.949l90.823 295.423c0 0.998 0 2.994 0 4.99 0.998 8.982-5.988 20.959-9.981 22.955l-233.544 151.704c-7.984 4.99-13.973 9.981-19.961 17.965-5.988 6.986-13.973 16.967-13.973 34.932 0 9.981 3.992 22.955 9.981 29.942 7.984 7.984 13.973 12.975 19.961 14.971 12.975 4.99 22.955 5.988 33.934 5.988h289.435c2.994 0 8.982 0.998 13.973 4.99s8.982 9.981 8.982 12.975l83.836 298.417c2.994 8.982 4.99 17.965 10.979 25.949 5.988 8.982 18.963 22.955 41.918 23.953l0.998-807.423z" />
<glyph unicode="&#xe91e;" glyph-name="star" horiz-adv-x="1026" d="M1015.018 572.756c-9.981 10.979-19.961 14.971-28.943 17.965s-15.969 3.992-24.951 3.992h-289.435c-2.994 0-8.982 0.998-13.973 4.99s-8.982 9.981-8.982 12.975l-81.84 297.419c-3.992 8.982-5.988 17.965-12.975 25.949-5.988 8.982-18.963 22.955-41.918 23.953-22.955-0.998-34.932-14.971-41.918-23.953-5.988-8.982-8.982-17.965-10.979-25.949l-82.838-299.415c0-2.994-3.992-8.982-8.982-12.975s-10.979-4.99-13.973-4.99h-289.435c-10.979 0-20.959-0.998-33.934-5.988-5.988-2.994-12.975-7.984-19.961-14.971-5.988-7.984-9.981-19.961-9.981-29.942 0-17.965 7.984-27.945 13.973-34.932 5.988-7.984 12.975-12.975 19.961-17.965l232.546-152.702c3.992-0.998 10.979-13.973 9.981-22.955 0-2.994 0-3.992 0-4.99l-90.823-295.423c-2.994-8.982-4.99-15.969-4.99-25.949 0-8.982 0.998-19.961 9.981-32.936 7.984-12.975 25.949-19.961 38.924-18.963 23.953 0.998 33.934 9.981 44.912 18.963l227.556 192.624c0.998 2.994 5.988 3.992 10.979 3.992 5.988 0 9.981-0.998 12.975-3.992l238.534-193.622c12.975-8.982 20.959-17.965 44.912-18.963h0.998c12.975 0 28.943 7.984 37.926 19.961 7.984 10.979 8.982 22.955 8.982 30.94 0 9.981-0.998 18.963-4.99 28.943l-100.803 298.417c0 0.998 0 2.994 0 4.99-0.998 7.984 5.988 19.961 9.981 20.959l231.548 151.704c5.988 4.99 13.973 9.981 19.961 17.965 4.99 7.984 12.975 17.965 12.975 34.932 0.998 9.981-3.992 21.957-10.979 29.942v0z" />
<glyph unicode="&#xe91f;" glyph-name="star-other-half" horiz-adv-x="1026" d="M513.996 152.577c4.99 0 9.981-0.998 10.979-3.992l227.556-192.624c10.979-8.982 20.959-17.965 44.912-18.963 12.975-0.998 30.94 5.988 38.924 18.963 8.982 12.975 9.981 23.953 9.981 32.936 0 9.981-2.994 17.965-4.99 25.949l-90.823 295.423c0 0.998 0 2.994 0 4.99-0.998 8.982 5.988 20.959 9.981 22.955l232.546 152.702c7.984 4.99 13.973 9.981 19.961 17.965s13.973 17.965 13.973 34.932c0 9.981-3.992 22.955-9.981 29.942-7.984 7.984-13.973 12.975-19.961 14.971-12.975 4.99-22.955 5.988-33.934 5.988h-289.435c-2.994 0-8.982 0.998-13.973 4.99s-8.982 9.981-8.982 12.975l-82.838 297.419c-2.994 8.982-4.99 17.965-10.979 25.949-5.988 8.982-18.963 22.955-41.918 23.953l-0.998-807.423z" />
<glyph unicode="&#xf099;" glyph-name="twitter" horiz-adv-x="951" d="M925.714 717.714q-38.286-56-92.571-95.429 0.571-8 0.571-24 0-74.286-21.714-148.286t-66-142-105.429-120.286-147.429-83.429-184.571-31.143q-154.857 0-283.429 82.857 20-2.286 44.571-2.286 128.571 0 229.143 78.857-60 1.143-107.429 36.857t-65.143 91.143q18.857-2.857 34.857-2.857 24.571 0 48.571 6.286-64 13.143-106 63.714t-42 117.429v2.286q38.857-21.714 83.429-23.429-37.714 25.143-60 65.714t-22.286 88q0 50.286 25.143 93.143 69.143-85.143 168.286-136.286t212.286-56.857q-4.571 21.714-4.571 42.286 0 76.571 54 130.571t130.571 54q80 0 134.857-58.286 62.286 12 117.143 44.571-21.143-65.714-81.143-101.714 53.143 5.714 106.286 28.571z" />
<glyph unicode="&#xf09a;" glyph-name="facebook" horiz-adv-x="602" d="M548 944v-150.857h-89.714q-49.143 0-66.286-20.571t-17.143-61.714v-108h167.429l-22.286-169.143h-145.143v-433.714h-174.857v433.714h-145.714v169.143h145.714v124.571q0 106.286 59.429 164.857t158.286 58.571q84 0 130.286-6.857z" />
<glyph unicode="&#xf0d5;" glyph-name="google" horiz-adv-x="1317" d="M821.143 429.143q0-118.857-49.714-211.714t-141.714-145.143-210.857-52.286q-85.143 0-162.857 33.143t-133.714 89.143-89.143 133.714-33.143 162.857 33.143 162.857 89.143 133.714 133.714 89.143 162.857 33.143q163.429 0 280.571-109.714l-113.714-109.143q-66.857 64.571-166.857 64.571-70.286 0-130-35.429t-94.571-96.286-34.857-132.857 34.857-132.857 94.571-96.286 130-35.429q47.429 0 87.143 13.143t65.429 32.857 44.857 44.857 28 47.429 12.286 42.286h-237.714v144h395.429q6.857-36 6.857-69.714zM1316.571 498.857v-120h-119.429v-119.429h-120v119.429h-119.429v120h119.429v119.429h120v-119.429h119.429z" />
<glyph unicode="&#xf0e1;" glyph-name="linkedin" horiz-adv-x="878" d="M199.429 593.714v-566.286h-188.571v566.286h188.571zM211.429 768.571q0.571-41.714-28.857-69.714t-77.429-28h-1.143q-46.857 0-75.429 28t-28.571 69.714q0 42.286 29.429 70t76.857 27.714 76-27.714 29.143-70zM877.714 352v-324.571h-188v302.857q0 60-23.143 94t-72.286 34q-36 0-60.286-19.714t-36.286-48.857q-6.286-17.143-6.286-46.286v-316h-188q1.143 228 1.143 369.714t-0.571 169.143l-0.571 27.429h188v-82.286h-1.143q11.429 18.286 23.429 32t32.286 29.714 49.714 24.857 65.429 8.857q97.714 0 157.143-64.857t59.429-190z" />
<glyph unicode="&#xf2a9;" glyph-name="viadeo" horiz-adv-x="730" d="M600 318.857q0-122.857-84-213.714-84.571-92-216-92-132.571 0-216 92-84 90.857-84 213.714 0 84 38.857 154.571t108 112.286 153.143 41.714q54.857 0 104-17.714-18.286-35.429-22.286-72-37.714 16-81.714 16-95.429 0-160.286-70.286t-64.857-166.286q0-97.143 64.286-164.857t160.857-67.714 160.571 67.714 64 164.857q0 50.857-18.286 94.857 37.714 7.429 70.286 28 23.429-56 23.429-121.143zM483.429 426.857q0-109.714-45.429-197.143t-136.286-144.571l-8-0.571q-16.571 0-35.429 2.857 47.429 18.286 83.714 58.571t56.857 88.286 33.429 108 17.143 110 4.286 102q0 39.429-1.714 58.857 31.429-91.429 31.429-186.286zM452 614.286v-1.143q-41.714 122.286-117.714 251.429 50.286-33.714 81.429-106.571t36.286-143.714zM591.429 498.286q-47.429 0-91.429 42.857 124.571 68.571 165.714 141.143 10.857 21.143 12 32-24-53.714-79.714-95.143t-116.857-55.714q-20 30.857-20 64.571 0 21.143 9.714 45.143t24.571 38.857q26.286 25.143 89.714 42.286 33.714 9.143 60.571 33.429t42.286 57.429q42.286-60 42.286-144.571 0-62.286-13.714-97.143-18.286-44-50.571-74.571t-74.571-30.571z" />
</font>
</defs>
</svg>
