<svg width="22" height="22" viewBox="0 0 22 22" fill="none" xmlns="http://www.w3.org/2000/svg">
<g clip-path="url(#clip0)">
<path d="M18.3835 10.7933C18.0261 10.7933 17.7494 11.0688 17.7494 11.4279V20.0951H13.2532V14.7812C13.2532 14.4492 12.9765 14.1589 12.642 14.1589H9.39109C9.03348 14.1589 8.74547 14.4492 8.74547 14.7812V20.0951H4.26061V11.7156C4.26061 11.3811 3.98417 11.1032 3.62656 11.1032C3.29232 11.1032 3.01562 11.3811 3.01562 11.7156V20.7296C3.01562 21.0641 3.29232 21.342 3.62656 21.342H9.39109C9.72534 21.342 10.002 21.0641 10.002 20.7296V15.4157H12.008V20.7296C12.008 21.0641 12.2846 21.342 12.642 21.342H18.3835C18.7177 21.342 18.9944 21.0641 18.9944 20.7296V11.4279C18.9944 11.0688 18.7177 10.7933 18.3835 10.7933Z" fill="#282C34"/>
<path d="M21.8205 11.2877L11.4331 0.854615C11.3066 0.726713 11.1564 0.657837 11.0066 0.657837C10.8337 0.657837 10.6837 0.729157 10.557 0.854615L0.192712 11.2188C-0.0559394 11.4672 -0.0724035 11.8657 0.192712 12.0944C0.423174 12.36 0.820147 12.3428 1.0688 12.0944L11.0066 2.18026L20.9213 12.1879C21.0245 12.2912 21.1748 12.3502 21.3709 12.3502C21.5438 12.3502 21.6935 12.2912 21.8205 12.1879C22.0511 11.9567 22.0684 11.5386 21.8205 11.2877Z" fill="#282C34"/>
</g>
<defs>
<clipPath id="clip0">
<rect width="22" height="22" fill="white" transform="matrix(-1 0 0 1 22 0)"/>
</clipPath>
</defs>
</svg>
