<svg width="114" height="41" viewBox="0 0 114 41" fill="none" xmlns="http://www.w3.org/2000/svg">
<path fill-rule="evenodd" clip-rule="evenodd" d="M106.117 28.2212V26.1314L107.669 25.7731V20.3871C107.669 19.4079 107.504 18.7271 107.176 18.3449C106.847 17.9628 106.359 17.7717 105.71 17.7717C105.201 17.7717 104.759 17.8813 104.386 18.1001C104.012 18.3192 103.715 18.6237 103.493 19.0138C103.493 19.1651 103.497 19.2944 103.505 19.4018C103.513 19.5093 103.518 19.6188 103.518 19.7302V25.7731L104.971 26.1314V28.2212H98.4796V26.1314L99.9331 25.7731V20.3871C99.9331 19.4317 99.7687 18.7569 99.4403 18.3628C99.1118 17.9687 98.6191 17.7717 97.9622 17.7717C97.4776 17.7717 97.0527 17.8613 96.6874 18.0404C96.3219 18.2196 96.02 18.4724 95.7821 18.7988V25.7731L97.3341 26.1314V28.2212H90.4609V26.1314L92.1976 25.7731V17.7598L90.2761 17.4015V15.2997H95.5356L95.6834 17.0074C96.1104 16.3864 96.6462 15.9068 97.2909 15.5684C97.9354 15.23 98.6807 15.0608 99.5266 15.0608C100.381 15.0608 101.111 15.2441 101.719 15.6102C102.327 15.9764 102.787 16.5297 103.099 17.2701C103.509 16.5775 104.043 16.0361 104.7 15.646C105.357 15.256 106.129 15.0608 107.016 15.0608C108.329 15.0608 109.366 15.5007 110.126 16.3804C110.885 17.2603 111.265 18.5999 111.265 20.399V25.7731L113.002 26.1314V28.2212H106.117ZM84.5297 26.5852C84.1026 27.1903 83.5751 27.656 82.9468 27.9824C82.3187 28.3088 81.6022 28.472 80.7974 28.472C79.3932 28.472 78.2927 28.0361 77.4963 27.1643C76.6997 26.2926 76.3014 24.9371 76.3014 23.098V17.7598L74.8357 17.4015V15.2997H76.3014H79.8982V23.1219C79.8982 24.0614 80.0603 24.7361 80.3848 25.146C80.7091 25.5563 81.1917 25.7611 81.8321 25.7611C82.3988 25.7611 82.8893 25.6715 83.304 25.4924C83.7186 25.3133 84.0573 25.0565 84.3203 24.7222V17.7598L82.7436 17.4015V15.2997H84.3203H87.917V25.7731L89.5305 26.1314V28.2212H84.7637L84.5297 26.5852ZM72.2862 18.3449C71.7606 18.3449 71.3255 18.4446 70.9805 18.6434C70.6357 18.8427 70.3728 19.1253 70.1923 19.4914V25.7731L71.9167 26.1314V28.2212H64.871V26.1314L66.5955 25.7731V17.7598L64.6862 17.4015V15.2997H69.9458L70.106 17.1865C70.418 16.5178 70.8204 15.9964 71.3131 15.6222C71.8059 15.248 72.3765 15.0608 73.0254 15.0608C73.2141 15.0608 73.4133 15.0748 73.6226 15.1026C73.8321 15.1306 74.0064 15.1644 74.1462 15.2041L73.7644 18.3808L72.2862 18.3449ZM58.2166 28.472C56.2375 28.472 54.6916 27.8611 53.579 26.6389C52.4662 25.4169 51.91 23.8345 51.91 21.8918V21.6411C51.91 19.7144 52.4662 18.136 53.579 16.9059C54.6916 15.6758 56.2293 15.0608 58.192 15.0608C60.1628 15.0608 61.7045 15.674 62.8172 16.9C63.9298 18.1261 64.4863 19.7064 64.4863 21.6411V21.8918C64.4863 23.8345 63.9298 25.4169 62.8172 26.6389C61.7045 27.8611 60.1709 28.472 58.2166 28.472ZM60.9019 21.6411C60.9019 20.4946 60.6841 19.5591 60.249 18.8345C59.8137 18.1102 59.1281 17.7478 58.192 17.7478C57.2559 17.7478 56.5741 18.1102 56.1472 18.8345C55.7201 19.5591 55.5067 20.4946 55.5067 21.6411V21.8918C55.5067 23.0703 55.7201 24.0157 56.1472 24.7281C56.5741 25.4407 57.264 25.797 58.2166 25.797C59.1445 25.797 59.8241 25.4388 60.2552 24.7222C60.6862 24.0056 60.9019 23.0622 60.9019 21.8918V21.6411ZM52.1045 15.3426L51.9443 13.5202H46.0934V18.3092H50.7746C50.7746 18.3092 50.5289 18.8724 50.3996 19.5274C50.2638 20.2151 50.2441 20.9962 50.2441 20.9962H46.0934V25.7731L48.0151 26.1314V28.2212H41.6172L41.1864 26.019L42.4967 25.7731V13.2934L40.5876 12.935V10.8332H54.8636V13.9569C54.04 14.2773 53.3136 14.7396 52.684 15.3426H52.1045ZM6.48753 40.1953L0 7.11674L34.362 0.825409L40.8494 33.904L6.48753 40.1953ZM30.9713 14.9992V22.7325C30.9254 24.0142 30.6044 24.6876 29.8246 24.6876C28.9762 24.6876 28.7469 23.8838 28.7469 22.7108V17.7363C28.7469 15.955 27.9444 14.9992 25.674 14.9992H24.4587V21.3857C24.4587 22.3185 24.6074 23.061 24.872 23.6468C24.5299 24.1132 24.17 24.3835 23.81 24.3835C23.0762 24.3835 22.7553 23.7753 22.7553 22.7977C22.7553 21.5595 22.9616 19.8434 22.9616 18.0621C22.9616 16.6067 22.3196 14.6733 19.797 14.6733C18.1688 14.6733 16.8618 15.4988 16.1279 16.9543C15.8299 15.7812 15.0044 14.6733 13.101 14.6733C11.5646 14.6733 10.3035 15.4337 9.54668 16.737C9.45504 15.2381 8.65232 14.9992 6.51966 14.9992H5.30433V25.8606H9.56965V19.5827C9.61547 17.6493 10.2117 16.9108 10.9226 16.9108C11.6564 16.9108 11.8399 17.8667 11.8399 18.6486V25.8606H16.2656V19.5827C16.3115 17.6493 16.9077 16.9108 17.6185 16.9108C18.3524 16.9108 18.5358 17.8667 18.5358 18.6486C18.5358 20.1041 18.3982 21.1902 18.3982 22.8195C18.3982 24.6876 19.4301 26.1865 21.9067 26.1865C23.5282 26.1865 24.6445 25.542 25.4492 24.519C26.2015 25.3168 27.3164 25.6 28.5635 25.6H28.724L28.7928 25.8823C27.4168 26.0778 24.9632 26.7512 24.9632 28.6194C24.9632 30.5093 27.1188 31.0306 29.5037 31.0306C32.4848 31.0306 35.2824 29.5752 35.2824 26.4037V14.9992H30.9713ZM29.7788 30.1183C28.9304 30.1183 28.5635 29.4449 28.5635 28.5325C28.5635 26.8599 29.2973 26.2517 30.696 25.5782L30.9713 25.4479V28.3153C30.9713 29.4666 30.6272 30.1183 29.7788 30.1183Z" fill="white"/>
</svg>
